<svg width="250" height="100" viewBox="0 0 250 100" fill="none" xmlns="http://www.w3.org/2000/svg">
<ellipse cx="125" cy="50" rx="125" ry="50" fill="#FF36AB"/>
<path d="M44.586 42.968C44.73 43.04 45.306 43.238 46.314 43.562C47.358 43.886 48.492 44.246 49.716 44.642C50.94 45.038 52.29 45.614 53.766 46.37C55.242 47.126 56.556 47.954 57.708 48.854C58.896 49.718 59.868 50.834 60.624 52.202C61.416 53.534 61.812 54.974 61.812 56.522C61.812 57.674 61.398 58.736 60.57 59.708C59.742 60.68 58.716 61.472 57.492 62.084C56.268 62.66 54.864 63.146 53.28 63.542C53.028 63.614 52.452 63.776 51.552 64.028C50.688 64.244 50.076 64.388 49.716 64.46C49.392 64.532 48.816 64.64 47.988 64.784C47.196 64.928 46.566 65 46.098 65C45.666 64.964 45.09 64.91 44.37 64.838C43.686 64.766 43.092 64.604 42.588 64.352C42.084 64.1 41.544 63.776 40.968 63.38C40.392 62.948 39.852 62.444 39.348 61.868C36.792 62.804 35.136 63.272 34.38 63.272C34.38 63.272 34.344 63.254 34.272 63.218C34.272 63.11 34.434 62.84 34.758 62.408C36.234 60.5 37.044 58.772 37.188 57.224C37.404 57.08 37.692 56.9 38.052 56.684C38.412 56.468 39.15 56.18 40.266 55.82C41.382 55.46 42.48 55.262 43.56 55.226C43.596 55.37 43.65 55.55 43.722 55.766C43.794 55.946 43.974 56.36 44.262 57.008C44.55 57.656 44.856 58.232 45.18 58.736C45.504 59.204 45.936 59.78 46.476 60.464C47.016 61.112 47.592 61.58 48.204 61.868C48.816 62.12 49.518 62.372 50.31 62.624C51.138 62.84 52.002 62.75 52.902 62.354C52.938 62.318 52.992 62.282 53.064 62.246C53.172 62.21 53.334 62.102 53.55 61.922C53.802 61.706 54.018 61.508 54.198 61.328C54.378 61.112 54.558 60.842 54.738 60.518C54.954 60.158 55.098 59.798 55.17 59.438C55.242 59.042 55.242 58.61 55.17 58.142C55.134 57.638 55.008 57.134 54.792 56.63C54.756 56.594 54.702 56.54 54.63 56.468C54.594 56.396 54.432 56.252 54.144 56.036C53.892 55.784 53.568 55.532 53.172 55.28C52.812 55.028 52.272 54.74 51.552 54.416C50.832 54.056 50.022 53.696 49.122 53.336C47.718 52.796 45.954 52.094 43.83 51.23C41.706 50.366 39.942 49.628 38.538 49.016L36.432 48.098C36.432 48.062 36.396 48.044 36.324 48.044C36.288 48.008 36.234 47.936 36.162 47.828C36.09 47.684 36.036 47.522 36 47.342C35.964 47.162 35.964 46.892 36 46.532C36.072 46.172 36.198 45.794 36.378 45.398L39.618 37.19C39.69 37.01 39.798 36.776 39.942 36.488C40.122 36.164 40.464 35.696 40.968 35.084C41.508 34.472 42.084 34.022 42.696 33.734C45.432 32.546 47.772 31.934 49.716 31.898V29.306C49.968 29.162 50.292 28.982 50.688 28.766C51.084 28.514 51.858 28.19 53.01 27.794C54.162 27.398 55.26 27.2 56.304 27.2L56.142 41.402C54.054 42.698 51.858 43.418 49.554 43.562C49.554 43.382 49.536 43.148 49.5 42.86C49.464 42.536 49.356 41.96 49.176 41.132C48.996 40.304 48.78 39.548 48.528 38.864C48.312 38.144 47.988 37.424 47.556 36.704C47.16 35.984 46.71 35.462 46.206 35.138L43.614 41.294C43.578 41.294 43.542 41.33 43.506 41.402C43.506 41.438 43.506 41.528 43.506 41.672C43.506 41.78 43.524 41.906 43.56 42.05C43.632 42.158 43.74 42.302 43.884 42.482C44.064 42.662 44.298 42.824 44.586 42.968ZM92.0132 50.96L95.8472 63.434C95.3432 63.83 94.5152 64.208 93.3632 64.568C92.2112 64.892 91.1672 65.108 90.2312 65.216L88.8812 65.432C88.5572 63.848 88.0352 61.94 87.3152 59.708C86.5952 57.44 85.9472 55.568 85.3712 54.092L84.5072 51.932C84.0752 51.68 83.1032 51.428 81.5912 51.176C80.1152 50.924 78.7292 50.726 77.4332 50.582L75.5432 50.366C75.5792 50.942 75.6512 51.86 75.7592 53.12C75.9032 54.38 76.0652 55.694 76.2452 57.062C76.4252 58.43 76.6052 59.78 76.7852 61.112C76.9652 62.408 77.1092 63.47 77.2172 64.298L77.4332 65.594C76.5692 66.062 75.5432 66.422 74.3552 66.674C73.2032 66.926 72.2672 67.07 71.5472 67.106L70.4672 67.16C70.1072 65.9 69.5132 64.766 68.6852 63.758C67.8572 62.75 66.9752 61.994 66.0392 61.49C65.1032 60.95 64.2032 60.518 63.3392 60.194C62.4752 59.834 61.7552 59.6 61.1792 59.492L60.3152 59.384C61.7912 58.484 63.2492 57.89 64.6892 57.602C66.1652 57.314 67.2812 57.242 68.0372 57.386L69.1172 57.656C68.8652 55.64 68.6672 53.318 68.5232 50.69C68.3792 48.062 68.2892 45.578 68.2532 43.238C68.2532 40.898 68.2532 38.702 68.2532 36.65C68.2892 34.598 68.3252 32.96 68.3612 31.736L68.4692 29.9C69.1892 29.504 69.9272 29.18 70.6832 28.928C71.4392 28.64 72.0872 28.442 72.6272 28.334C73.1672 28.19 73.6532 28.082 74.0852 28.01C74.5172 27.938 74.8412 27.902 75.0572 27.902H75.3812C75.3092 29.126 75.2372 30.89 75.1652 33.194C75.1292 35.498 75.1112 37.496 75.1112 39.188V41.672C76.9832 39.836 78.8012 37.73 80.5652 35.354C82.3292 32.942 83.6432 30.998 84.5072 29.522L85.8032 27.254C86.1632 27.542 86.5232 27.956 86.8832 28.496C87.2792 29 87.6032 29.54 87.8552 30.116C88.1072 30.656 88.3412 31.196 88.5572 31.736C88.7732 32.24 88.9352 32.672 89.0432 33.032L89.1512 33.518C89.0072 34.526 88.0892 36.2 86.3972 38.54C84.7052 40.844 83.0672 42.896 81.4832 44.696L79.0532 47.45C79.5572 47.702 82.5632 48.206 88.0712 48.962C88.7192 49.034 89.2952 49.16 89.7992 49.34C90.3392 49.52 90.7352 49.7 90.9872 49.88C91.2392 50.06 91.4372 50.24 91.5812 50.42C91.7612 50.564 91.8872 50.69 91.9592 50.798L92.0132 50.96ZM131.749 53.714C131.857 53.75 132.019 53.804 132.235 53.876C132.451 53.948 132.811 54.11 133.315 54.362C133.855 54.578 134.323 54.848 134.719 55.172C135.115 55.46 135.457 55.856 135.745 56.36C136.069 56.828 136.213 57.332 136.177 57.872C136.033 59.24 135.313 60.41 134.017 61.382C132.721 62.354 131.065 63.074 129.049 63.542C128.869 63.578 128.419 63.704 127.699 63.92C126.979 64.1 126.457 64.226 126.133 64.298C125.845 64.334 125.359 64.406 124.675 64.514C124.027 64.622 123.523 64.676 123.163 64.676C122.803 64.676 122.317 64.64 121.705 64.568C121.129 64.496 120.625 64.37 120.193 64.19C119.797 63.974 119.347 63.704 118.843 63.38C118.375 63.056 117.943 62.66 117.547 62.192C115.423 62.948 114.055 63.326 113.443 63.326L113.335 63.218C113.371 63.11 113.515 62.894 113.767 62.57C114.955 61.058 115.621 59.672 115.765 58.412C117.241 57.404 118.987 56.882 121.003 56.846C121.039 56.882 121.075 56.954 121.111 57.062C121.147 57.17 121.237 57.404 121.381 57.764C121.525 58.088 121.669 58.394 121.813 58.682C121.993 58.97 122.209 59.33 122.461 59.762C122.749 60.194 123.037 60.572 123.325 60.896C123.613 61.184 123.955 61.508 124.351 61.868C124.747 62.192 125.161 62.408 125.593 62.516C126.025 62.624 126.511 62.732 127.051 62.84C127.627 62.912 128.203 62.822 128.779 62.57C128.815 62.57 128.869 62.552 128.941 62.516C129.013 62.444 129.139 62.336 129.319 62.192C129.499 62.048 129.661 61.886 129.805 61.706C129.985 61.526 130.147 61.31 130.291 61.058C130.471 60.77 130.579 60.482 130.615 60.194C130.687 59.906 130.705 59.564 130.669 59.168C130.633 58.772 130.507 58.358 130.291 57.926C130.255 57.854 130.165 57.746 130.021 57.602C129.877 57.422 129.409 57.116 128.617 56.684C127.825 56.216 126.835 55.766 125.647 55.334C124.459 54.866 122.983 54.29 121.219 53.606C119.491 52.886 118.051 52.274 116.899 51.77L115.117 51.068C115.081 51.032 115.027 50.978 114.955 50.906C114.883 50.798 114.811 50.582 114.739 50.258C114.667 49.898 114.775 49.43 115.063 48.854L117.763 42.212C117.835 42.068 117.925 41.888 118.033 41.672C118.177 41.42 118.465 41.042 118.897 40.538C119.329 40.034 119.797 39.674 120.301 39.458C122.569 38.486 124.513 37.982 126.133 37.946V35.894C127.789 34.778 129.607 34.202 131.587 34.166L131.425 45.668C129.697 46.712 127.897 47.288 126.025 47.396C125.989 47.252 125.953 47.054 125.917 46.802C125.881 46.55 125.791 46.1 125.647 45.452C125.503 44.768 125.341 44.156 125.161 43.616C124.981 43.04 124.711 42.464 124.351 41.888C123.991 41.276 123.613 40.844 123.217 40.592L120.085 48.152C119.797 48.656 120.067 49.106 120.895 49.502C121.111 49.61 121.633 49.844 122.461 50.204C123.289 50.528 124.207 50.888 125.215 51.284C126.259 51.644 127.267 52.022 128.239 52.418C129.247 52.778 130.075 53.084 130.723 53.336L131.749 53.714ZM163.681 53.228C164.365 53.156 164.689 53.246 164.653 53.498C163.645 54.074 162.727 54.776 161.899 55.604C161.071 56.432 160.423 57.224 159.955 57.98C159.487 58.736 159.073 59.456 158.713 60.14C158.389 60.824 158.173 61.364 158.065 61.76L157.903 62.354C156.931 62.786 155.905 63.11 154.825 63.326C153.781 63.542 152.953 63.668 152.341 63.704H151.423C151.099 63.236 150.847 62.696 150.667 62.084C150.487 61.436 150.379 60.932 150.343 60.572V59.978L150.613 44.858L145.321 46.91C145.249 48.062 145.087 49.43 144.835 51.014C144.619 52.562 144.367 54.038 144.079 55.442C143.827 56.846 143.557 58.16 143.269 59.384C143.017 60.608 142.801 61.598 142.621 62.354L142.297 63.434C141.685 63.794 140.839 64.082 139.759 64.298C138.715 64.478 137.815 64.568 137.059 64.568H135.979C137.167 60.536 137.977 56.594 138.409 52.742C138.841 48.89 138.931 45.65 138.679 43.022C138.463 40.394 138.139 38.054 137.707 36.002C137.311 33.914 136.897 32.384 136.465 31.412L135.871 29.9C136.627 29.468 137.527 29.108 138.571 28.82C139.651 28.532 140.551 28.334 141.271 28.226L142.297 28.118C143.305 30.422 144.061 32.852 144.565 35.408C145.105 37.964 145.375 39.944 145.375 41.348L145.429 43.454C147.589 42.518 150.181 41.564 153.205 40.592C155.725 39.908 157.021 40.106 157.093 41.186L156.823 56.036C157.831 55.46 159.037 54.884 160.441 54.308C161.881 53.732 162.961 53.372 163.681 53.228ZM179.637 37.838C179.961 38.198 180.393 38.666 180.933 39.242C181.473 39.818 182.283 40.844 183.363 42.32C184.443 43.76 185.199 45.002 185.631 46.046C185.595 46.262 185.523 46.55 185.415 46.91C185.343 47.234 185.163 47.936 184.875 49.016C184.623 50.06 184.335 51.068 184.011 52.04C183.687 53.012 183.273 54.128 182.769 55.388C182.265 56.648 181.725 57.764 181.149 58.736C180.609 59.708 179.961 60.608 179.205 61.436C178.485 62.264 177.747 62.84 176.991 63.164C175.731 63.704 174.687 64.1 173.859 64.352C173.067 64.568 172.275 64.676 171.483 64.676C170.691 64.676 170.007 64.46 169.431 64.028C168.855 63.596 168.261 62.984 167.649 62.192C167.073 61.364 166.461 60.266 165.813 58.898C164.769 56.666 164.319 54.398 164.463 52.094C164.607 49.754 165.039 47.702 165.759 45.938C166.479 44.138 167.361 42.698 168.405 41.618C168.801 41.186 169.215 40.79 169.647 40.43C170.079 40.07 170.475 39.782 170.835 39.566C171.231 39.314 171.609 39.098 171.969 38.918C172.329 38.738 172.653 38.594 172.941 38.486C173.229 38.378 173.481 38.288 173.697 38.216C173.949 38.144 174.129 38.108 174.237 38.108L174.399 38.054C174.507 38.054 174.597 38.054 174.669 38.054C174.741 38.054 174.831 38.108 174.939 38.216C175.083 38.324 174.993 38.522 174.669 38.81C174.669 38.846 174.615 38.918 174.507 39.026C170.439 43.562 169.035 48.08 170.295 52.58C170.907 54.704 171.591 56.54 172.347 58.088C173.139 59.636 173.769 60.662 174.237 61.166L174.885 61.922C174.957 61.778 175.047 61.616 175.155 61.436C175.263 61.22 175.479 60.788 175.803 60.14C176.127 59.456 176.433 58.808 176.721 58.196C177.009 57.548 177.333 56.792 177.693 55.928C178.089 55.028 178.431 54.2 178.719 53.444C179.007 52.688 179.259 51.914 179.475 51.122C179.727 50.294 179.907 49.574 180.015 48.962C180.195 48.386 179.889 47.504 179.097 46.316L176.883 43.184L176.343 44.966C176.127 45.11 175.839 45.29 175.479 45.506C175.155 45.722 174.525 45.974 173.589 46.262C172.653 46.55 171.789 46.622 170.997 46.478C173.049 42.158 174.363 39.836 174.939 39.512C176.811 38.468 178.377 37.91 179.637 37.838ZM188.162 37.838C189.998 37.946 191.906 38.45 193.886 39.35C195.902 40.25 197.684 41.33 199.232 42.59C200.816 43.814 202.256 45.038 203.552 46.262C204.884 47.486 205.91 48.512 206.63 49.34L207.656 50.636C207.656 51.248 207.422 52.004 206.954 52.904C206.522 53.804 206.072 54.542 205.604 55.118L204.956 55.982C203.876 56.126 202.814 56.306 201.77 56.522C200.762 56.702 199.862 56.918 199.07 57.17C198.314 57.386 197.594 57.62 196.91 57.872C196.262 58.088 195.704 58.304 195.236 58.52C194.768 58.736 194.372 58.934 194.048 59.114C193.724 59.294 193.472 59.438 193.292 59.546L193.076 59.708L192.698 72.992C191.114 73.82 189.188 74.324 186.92 74.504C186.956 73.784 186.758 72.956 186.326 72.02C185.894 71.12 185.354 70.256 184.706 69.428C184.094 68.636 183.464 67.88 182.816 67.16C182.168 66.476 181.628 65.918 181.196 65.486L180.494 64.892C180.746 64.82 181.016 64.748 181.304 64.676C181.556 64.568 181.808 64.496 182.06 64.46C182.276 64.388 182.492 64.334 182.708 64.298C182.924 64.262 183.122 64.226 183.302 64.19C183.482 64.154 183.626 64.118 183.734 64.082C183.878 64.046 183.986 64.028 184.058 64.028H184.166L186.758 65.27L188.162 37.838ZM193.238 56.468C193.49 56.216 193.832 55.91 194.264 55.55C194.732 55.154 195.686 54.56 197.126 53.768C198.566 52.94 200.024 52.346 201.5 51.986C199.052 49.718 196.496 47.792 193.832 46.208L193.238 56.468Z" fill="white"/>
</svg>
